<svg xmlns="http://www.w3.org/2000/svg" viewBox="0 0 250 239.43" width="32" height="32">
  <g transform="matrix(1.25 0 0 -1.25 -258.03 614.97)">
    <path d="m133.17 0.70312c-0.06 0.14027-0.7 0.34948-0.75 0.49808-0.25 0.694 0.17 1.2474 0.25 1.7461-0.27 0.054-0.4 0.4585-0.5 0.498-0.9 0.3044-2.06-0.2337-2.99 0-0.5 0.1164-1.21 1.139-1.74 1.2481-1.16 0.2264-1.78-0.5312-2.75 0.248-0.47 0.3584-1.48 3.5307-1.74 4.2402-0.27-0.1475-0.47 0.1092-0.75 0-0.28-0.109-0.65-0.8577-1-0.998-2.28-0.9267-2.19 0.9513-3.24 1.7461-0.38 0.2803-1.04 0.2803-1.5 0.4983 0 0-0.18-0.7407-0.25-0.9983 0.3-0.2722 1.13-0.5754 1.25-0.9961 0.07-0.2805-0.12-0.7414 0-0.9981-0.22-0.1714-0.44-0.1479-0.5-0.498-0.46 0-1.05 0.1017-1.49 0-0.25 0.3429-0.91 0.8409-1 1.2461-0.05 0.1714 0.11 0.5766 0 0.748-0.19 0.265-1.16 0.4676-1.25 0.7481-0.37 1.1293 0.25 1.9863 0.5 2.7423h-0.5c-0.36 0.117-1.1 1.427-1 1.996 0.04 0.203 0.67 0.599 0.75 0.748 0.09 0.171 0.12 0.88 0.25 0.996 0.21 0.179 0.58 0.024 0.75 0.25-0.44 0.942-0.4 1.357-0.75 2.494-0.13-0.086-0.61 0-0.75 0-0.65-1.387-0.81-0.873-0.49-2.992-0.25-0.117-0.78-0.694-1-0.748-0.75-0.203-1.77 0.211-2.5 0-0.24-0.078-0.39-0.905-0.74-0.998-0.28-0.078-1.2 0.196-1 0.25-0.3 0.53-0.67 1.043-1 1.744-0.04 0.078-0.47 0.179-0.5 0.25-0.16 0.405 0.05 1.207-0.25 1.496-0.46 0.421-1.26 0.109-1.74 0.498-0.36 0.272-1.04 3.889-0.5 4.24 0.77 0.499 1.22 0.024 1.75-0.25 0.39-0.21 0.17-0.483 0.24-0.998 0.17 0.054 0.75 0.25 0.75 0.25-0.14 0.748-0.19 0.898-0.25 1.747-0.27 0.054-0.39 0.458-0.5 0.498-0.75 0.256-1.96-0.196-2.74 0l-0.25 0.498c-0.4 0.256-0.76 0.016-1.24 0.25 0.27-1.333 0.4-2.105 0.74-3.243-0.46-0.195-0.12-0.022-0.25-0.498-1.196-0.093-2.248-0.483-2.988 0.498-0.974 1.271-0.615 2.556 0 3.741-0.499 0.599-1.363 1.301-1.496 2.244-0.047 0.296 0.148 0.983 0 1.248-0.054 0.078-1.128 0.217-1.245 0.248-0.078 0.483-0.063 1.107-0.251 1.746 0.046 0.007 0.897 0.162 0.998 0.248 0.273 0.226 0.241 1.046 0.498 1.248-0.545-0.016-3.335 0.241-3.989 0.748-0.624 0.468 0.328 3.007 0 3.988-0.179 0.522-0.974 1.052-1.248 1.497-1.129 1.807-1.955 3.171-3.24 4.738-0.219 0.256-0.872 0.499-0.996 0.998-0.779 3.062 0.748 1.954 1.496 2.242 0.171 0.063 0.974 0.804 1.246 0.998-0.459 0.975-1.589 2.517-0.748 3.99 0.148 0.265 0.842 0.412 0.998 0.746 0.163 0.367-0.351 0.181-0.25 0.75 0.242 1.464 1.878 1.496 3.242 1.496-0.148 0.054-0.951 0.732-0.998 0.747-2.408 0.709-2.05-0.342-2.992 1.996-1.115-1.474-1.947-1.825-4.238-2.244-0.188 0.389-0.461 0.483-0.75 0.748 0.452 1.13 0.468 1.675 0.998 2.742-0.398 0.265-1.199 0.617-1.496 0.998-0.281 0.344-0.194 0.957-0.498 1.246-0.257 0.234-0.694 0.056-0.998 0.25-0.319 0.195-0.756 0.934-0.998 1.246 0.101 0.171 0 0.788 0 0.998 1.263 0.32 1.411 0.459 2.992 0.248-0.139 0.273 0.11 0.452 0 0.748l-0.498 0.25c-0.537 0.818-0.28 1.309-0.498 2.494 0.157 0.085 0.903 0.365 0.996 0.498 0.702 0.965 1.068 1.785 1.746 2.743-0.491 0.327-1.823 0.903-1.994 1.496-0.133 0.429 0.124 0.811 0 1.248 0.653 0.171 1.807 0.397 2.494 0.748 0.147 0.069 0.521 0.684 0.748 0.746 0.436 0.109 0.802-0.117 1.246 0-0.147 0.569-0.281 1.123-0.498 1.996-0.624 0.024-0.701-0.483-1.496-0.248-0.149 0.038-0.515 0.63-0.748 0.746 0.951 1.769-0.119 1.286 2.492 1.496 0.241 0.663 0.514 1.426 0.748 1.994h0.25c0.194 1.053-0.335 1.419-0.25 2.494 0.063 0.897 0.851 2.696 0.998 3.491 0.102 0.576-0.194 1.193 0 1.746 0.032 0.101 0.436 0.226 0.498 0.498 2.066-0.733 0.624 0.429 1.994-1.246 0.274 0.133 0.453-0.118 0.75 0 0.07 0.023 0.584 0.709 0.748 0.748 1.075 0.242 1.23-0.46 2.243 0 1.099 0.498-0.117 1.24-0.25 1.746-0.078 0.28 0.101 0.715 0 0.996 1.839 1.317 2.517 2.082 5.232 1.996 0.14-0.343 0.25-0.921 0.5-1.248 0.19-0.265 0.81-0.28 1-0.498v2.742c0.06 0.304 1.45 1.995 1.75 2.494 0.67-0.054 1.3 0 1.99 0 0.08-0.163 0.35-0.967 0.5-0.998 2.24-0.506 2.84 1.933 3.99 2.244 0.71 0.187 1.11-0.139 1.74-0.248 0.25 0.296 0.37 1.114 0.75 1.246 0.27 0.087 0.74-0.14 1 0 0.05-0.265 0.46-0.396 0.5-0.498 0.14-0.428-0.13-0.819 0-1.248-0.23-0.047-1.34-0.076-1.75-0.248-0.43-0.194-0.62-1.371-0.99-1.496h-0.5c-0.14-0.273 0.13-0.741 0-0.998 0.17-0.272 0.6-0.694 0.74-0.998 0.33 0.296 1.03 0.343 1.25 0.748 0.13 0.234-0.08 0.733 0 0.998 0.1 0.382 0.78 0.686 1 0.998 0.47-0.093 1.01 0.109 1.49 0 0.86-0.202 1.07-1.201 2.25-1.248 1.35-0.062 2.62 1.24 4.49 0.748 1.27-0.343 0.96-1.978 1.74-2.492 0.88-0.584 2.1-0.15 3.24-0.5 0.28-0.094 0.71-0.615 1-0.748 0-0.218-0.1-0.809 0-0.996 0.13-0.272 0.58-0.173 0.75-0.5 1.17 0.374 2.65 1.194 3.99 0.5 0.32-0.172 0.48-1.053 0.75-1.248 0.25-0.203 0.71-0.108 1-0.248 0.24-0.133 0.74-0.874 0.99-0.998 0.59-0.312 1.18-0.28 1.75-0.498 0 0 0.32-1.169 0.25-1.496-0.1-0.382-0.93-0.718-1-0.999-0.19-0.732 0.32-0.63 0.25-1.246 0.35-0.256 0.5-0.639 0.75-0.998 0.97 0.133 2.08 0.437 2.99 0 0.54-0.272 0.38-0.825 0.75-1.246 0.49-0.584 1.63-1.067 2.24-1.496-0.11-0.81-0.36-1.628-0.25-2.244 0.1-0.561 1-1.091 1.25-1.496 0.32-0.537 0.23-0.927 0.5-1.496-0.09-0.063-0.72-0.407-0.75-0.5-0.12-0.288 0.14-0.482 0-0.746 1.99-1.411 2.36-2.167 0-3.492 1.48-0.771 2.76-1.558 4.24-2.243-0.12-0.327 0-0.897 0-1.248-0.3-0.139-0.73-0.662-1-0.748-1-0.311-1.61 0.032-2.24-0.498-0.27-0.225-0.15-0.827-0.25-1.248-0.56 0.195-0.38-0.692-0.5-0.996 0.04 0 1.39 0.092 1 0.248 1.6-0.186 4.4-0.38 2.99-2.492-0.13-0.194-0.94-0.305-1-0.5-0.15-0.49 0.44-1.198 0.25-1.994-0.16-0.631-1.09-0.755-1.25-0.996-0.51-0.78-0.74-1.006 0.25-1.496-0.12-1.707-0.21-1.638 0.75-2.495 0.05-0.055 0.67 0 0.75 0 0.04-0.28 0.02-1.426 0.25-1.746l1.49-0.746c-0.34-1.045-0.74-2.051-0.5-2.744 0.07-0.202 0.71-0.809 0.75-0.996 0.1-0.578-0.34-0.368-0.25-0.75-0.28 0.063-0.97 0.25-1 0.25-0.62 2.096-0.38 2.82-1.74 0.998-0.66 0.078-0.58 0.318-1 0.498 0 0-0.03-1.566 0-1.994 2-0.46 1.25-0.117 2.25-1.496 0.22 0.156 0.48-0.102 0.75 0 0.25 0.101 0.31 0.865 0.49 0.998 1.16 0.818 2.71 0.257 3.75 0-0.12-0.484 0.13-1.03 0-1.496-0.09-0.289-0.92-0.874-1-1.248-0.07-0.281-0.14-1.371 0.25-1.246v-0.498c-0.06-0.156-0.72-0.67-0.75-0.748-0.06-0.149 0.06-0.616 0-0.748 1.85-0.811 2.09-0.952 2.99-2.745l0.5-0.498c0.08-0.545-0.44-0.959-0.25-1.746 0.09-0.436 0.92-0.974 1-1.496 0.07-0.554-0.42-1.161-0.25-1.994 0.1-0.499 1.13-1.339 1.24-1.744 0.15-0.546-0.09-1.193 0-1.746-1.63-0.959-1.55-0.554-1.74-2.992 0.4-0.258 0.15-0.219 0.25-0.748h0.5c0.02 0.498-0.05 1.253 0 1.994 0.04-0.009 1.38-0.046 0.99-0.248 0.1-0.296 0.5-1.278 0.75-1.496 0.03-0.039 0.01-0.702 0-0.748-0.1-0.406-0.74-0.898-0.99-1.249 0.2-0.327 0.56-0.7 0.74-0.996 0.18-0.304 0.7-1.045 0.75-1.248 0.27-1.184-0.48-2.174-0.5-2.742-0.04-0.997 0.61-1.511 0.5-2.742l-0.5-0.748c-0.57-2.758-0.12-2.33-2.74-2.992-0.12 0.498-0.38 1.425-0.5 1.994-0.48 0.124-0.31-0.218-0.5 0.25-0.87-0.04-1.98-0.211-2.49-0.25 0.11-1.909-0.02-2.594-0.5-4.2384-0.72-0.1632-1.96-0.8501-2.99-0.5-0.19 0.0551-0.48 0.6151-0.75 0.748 0 0.5767 0.09 1.1612 0 1.7464h-0.5c-0.25-0.5228 0-0.7944-0.25-1.2464-0.35-0.616-1.6-1.1545-1.74-1.9961-0.25-1.4108 0.68-1.4487 0.5-2.7421-0.06-0.3502-2.19-3.1799-2.5-3.2422-1.38-0.29613-1.58 0.6396-2.24 0.998-0.81 0.4208-1.75 0.6469-2.5 0.9981 0.41 1.6363 1.37 4.6822-1.74 3.9882-1.1-0.2493-0.79-1.004-1.25-1.9941-0.07-0.1631-0.71-0.3339-0.74-0.498-0.23-1.146 0.6-2.1441 0-3.2422-0.36-0.63897-1.26-0.4447-2-0.74808zm-74.303 31.666c-0.14 0.234-0.576 0.07-0.748 0.25-0.358 0.35-0.001 1.263-0.25 1.746-0.234 0.437-1.552 1.076-2.494 0.748 0 0-0.467-1.333-1.246-1.496-0.725-0.156-1.66 0.233-1.994 0.248l-0.25 1.996-1.246 1.496 0.748 0.248c0.483 0.74 0.544 1.038 0.996 1.997-0.265-0.125-0.723 0.093-0.996 0-0.857-0.296-1.785-2.822-2.744-3.243-1.216-0.545-3.31-0.483-4.737-0.748-0.256 0.35-0.639 0.506-0.998 0.748 0.009 0 0 0.709 0 0.748 0.312 0.078 0.398 0.623 0 0.498-0.054-0.015-0.208-0.42-0.248-0.498-0.693 0-1.558 0.023-2.244 0-0.296 1.637-0.998 2.383-1.746 3.491-0.303-0.234-0.702-0.023-0.998-0.248-0.101-0.079-0.474-0.929-0.498-0.998 1.676-0.469-2.813 0.094-0.998 0.25-0.405 0.116-0.692 0.006-0.996 0.248l-1.496 1.746c-0.39 0.693-0.188 2.026-0.998 2.494-0.374 0.21-1.45 0.194-1.747 0.248-1.222 3.21-1.051 1.083-2.992 1.994-0.319 0.141-0.467 1.014-0.748 1.248-0.256 0.194-0.723 0.101-0.996 0.248l-0.25 0.498c-1.09 0.702-2.12 0.461-3.242 0.5-0.148 0.35-0.24 1.075-0.498 1.496-0.428 0.67-1.324 0.554-1.994 0.998-0.857 0.553-2.891 3.788-3.49 3.991-0.079 0.022-1.053-0.283-1.497-0.252-0.92 0.055-2.486 0.547-3.242 0.75 0 1.308 0.109 2.205 0.25 3.242-0.576-0.149 0.086 0.28-0.498 0.248l-0.5-0.5c-0.841-0.226-1.7997 0.585-1.994 0.998-0.4135 0.865-0.0623 1.638 0 2.494 0.4281 0 1.083-0.132 1.496 0-0.226 2.852 0.077 2.891-2.494 2.742-0.0696 0.164-0.6161 0.632-0.748 0.748 0.2877 0.982 0.2194 1.434 0.5 2.494-0.1092-0.016-1.0764 0.186-1.4961 0.248 0 0 0.1084-1.292-2.4942 0.5 0.3657 2.752-0.9115 3.7-0.498 6.731-0.7325 0.421-1.5741 1.06-2.2442 1.496 0.0853 0.436-0.0935 0.804 0 1.248 0.1247 0.624 0.9046 1.449 0.9981 2.244 0.0925 0.866-0.0094 1.605-0.25 2.244-0.0088 0.016-0.4981 0.248-0.4981 0.248-0.2805 1.543 0.3412 3.383 0.4981 4.739 0.3034 0.101 0.6389-0.015 0.748 0.25 0.1092 0.265-0.1402 0.731 0 0.996-0.1797 0.211-0.8505 0.498-0.998 0.748-0.81038 1.309-0.0382 2.487-0.2481 3.99 0 0-0.4459 0.219-0.5 0.25v0.498c-0.07059 0.39-0.31166 1.223 0 1.994 0.0613 0.156 0.6078 0.36 0.7481 0.5v0.498c2.5786 0.18 2.6013 0.203 3.9883-1.496 0.188 0.063 0.7178 0.266 0.75 0.25-0.1092 0.351-0.4699 0.825-0.5 0.996-0.079 0.367 0.25 1.496 0.25 1.496 0.1091 0.078 0.7013 0.36 0.748 0.5 0.186 0.577-0.055 1.377 0 1.997-2.2836-1.06-3.7716-0.84-2.7441 1.99 0.1257 0.35-0.0213 0.57 0.2519 0.75 0.452 0.29 1.1447-0.02 1.7442 0.25 0.1558 0.07 0.5839 0.96 0.748 1 1.6052 0.29 2.2508-1.33 2.7422-2.25 0.2809 0.14 0.6849 0.49 0.9979 0.5-0.8653 1.73-0.522 1.47 0 2.99-0.055 0.03 0 0.69 0 0.75-0.133-0.36-0.273 0.65-0.25 0.75 0.32 1.48 2.368 1.34 3.74 1.25-0.078 0.12 0.047 0.6 0 0.74-0.266 0.67-1.9 1.39-2.492 1.75 0.148 0.42-0.156 0.82 0 1.25 0.085 0.25 1.457 1.42 1.744 1.49 1.03 0.25 2.86-0.4 3.491-0.75 0.233-0.13 0.646-0.94 0.998-0.99 0.793-0.14 1.074 0.31 1.744 0.5-0.016 0 0 0.71 0 0.74-3.109 0.35-3.924 1.12-2.242 3.49 1.333-0.34 1.651-0.16 2.99-0.49 0.102 0.81 0.33 2.43 1 2.74 0.451 0.2 1.23-0.07 1.744 0 2.65 0.36 2.712 1.5 4.488-1 1.278 0.14 2.065 0.36 2.992 0l0.498-0.5c0.835-0.11 1.692 0.45 2.245 0.5 0.709 0.05 0.959-0.25 1.496-0.25 0.156-0.63 0.28-1.18 0.498-1.99-0.397-0.32-0.802-0.48-1.246-0.75v-0.5c0.826-0.39 1.761-1 2.494-1.25 0.857-0.28 2.19-0.4 2.992 0l0.498 0.5c1.285 0.19 1.925-0.61 2.742-0.75 0.561-0.1 1.475 0.22 1.996 0 0.764-0.33 0.717-1.88 1.246-2.49 0.554-0.65 1.807-0.96 2.493-1.5-0.234-0.6 0.748 0 0.748 0 0.35 2.27-0.031 1.89 2.244 2.25 0.374-0.71 0.99-2.22 1.996-2.25 0.436-0.01 0.14 0.35 0.748 0.25 0.125 0.35-0.133 0.89 0 1.25 0.047 0.13 0.623 0.49 0.748 0.75 0.273-0.11 0.708 0.07 0.996 0 0.779-0.22 1.2-2.03 1.496-2.74 2.79-0.12 2.214 0.14 3.242-1.75 1.114 0.15 1.69 0.07 2.743 0 0.054-0.27 0.461-0.4 0.5-0.5 0.187-0.54-0.187-1.2 0-1.74 0.147-0.45 1.2-0.87 1.496-1.25 0.319-0.43 0.365-1.16 0.748-1.5 0.732-0.66 1.877-0.69 2.244-1.74 0.187-0.55-0.109-1.17 0-1.747 0.047-0.296 0.717-1.2 0.748-1.496 0.187-1.901-0.914-2.072-1.996-2.742-0.328 0.436-0.662 0.817-0.996 1.246 0.623 0.118-0.748 0.498-0.748 0.498 0.233-1.347-0.196-1.309 1.246-2.244 0.576-0.381 0.95-0.343 1.496-0.748 0.163-0.132 0.303-0.662 0.498-0.748 0.849-0.412 1.887-0.031 2.744-0.498 0.397-0.225 0.186-1.004 0.498-1.246-0.39-0.717-0.093-0.827-0.748-1.248-0.374-0.241-0.771-0.296-1.246-0.498 0.265-0.179 0.444-0.881 0.748-0.998 0.717-0.288 1.44 0.072 1.994-0.248 0.49-0.296 0.163-0.781 0.498-1.248 0.21-0.312 1.053-0.46 1.248-0.748 0.226-0.359 1.137-3.047 0.996-3.741-0.086-0.397-0.864-0.715-0.996-0.996-0.273-0.584-0.056-0.982-0.252-1.746 0.327-0.015 0.368-0.467 0.5-0.498 0.531-0.14 0.717 0.429 0.996 0.498 1.513 0.343 1.832-0.546 2.494-0.998-0.124-1.067-0.287-2.383-0.248-3.24-1.184-0.6-1.676-0.226-1.746-1.994-0.078-1.716 0.85-1.605 0.998-2.244 0.117-0.522-0.242-1.396-0.25-1.497-0.187-2.198 0.608-2.422 0-4.488 0.335-0.123 0.895 0 1.246 0 0.748-1.597 0.656-0.943 0.25-2.744-0.335-0.101-0.786-0.061-0.996-0.248-0.553-0.513-1.052-1.427-1.496-1.996 1.076-0.856 1.837-1.705 2.99-2.492-0.132-0.436 0.125-0.819 0-1.248-0.046-0.148-0.694-0.739-0.748-0.996-0.233-1.083-0.107-1.777-0.248-2.743 0.281 0.008 1.356 0.186 1.995 0.248 0 0 0.296-1.152 0.25-1.496-0.024-0.124-1.194-3.187-1.249-3.242-0.249-0.233-0.989-0.334-1.246-0.498 0.366-1.153 1.217-3.225-0.248-3.738-0.429-0.157-0.827 0.147-1.248 0-0.179 0.466-0.304 0.894-0.5 1.244-1.245 2.174-0.216 0.143-1.244 0.5 0-0.452 0.109-1.067 0-1.496 0.077-0.046 0.483-0.201 0.498-0.248 0.109-0.367 0.249-0.314 0.498-0.5-0.202-0.546-0.428-1.115-0.498-1.496-0.444 0.21-2.011 0.864-2.494 0.748-0.055-0.016-0.623-0.717-0.748-0.748-0.289-0.078-0.724 0.1-0.996 0-0.195 0.187-0.78 1.17-0.998 1.248-0.272 0.085-0.749-0.14-0.998 0 0.873 0-0.491-3.227-0.498-3.242 1.278-0.476 1.332-0.623 2.244-1.246-0.117-0.437 0-1.053 0-1.497-1.091-0.21-1.309-0.359-2.742-0.25-0.32-0.654-0.242-0.577-0.748-0.998-0.764 0.468-0.866 0.781-1.996 1.248-0.289 2.532-0.132 2.5 1.996 2.493-0.515 1.035-0.421 1.426-0.748 2.744-0.624-0.826-1.528-1.762-2.494-2.244h-0.25c-0.429-0.866-0.117-2.081-0.249-2.993 0.53-0.101 0.468 0 0.749-0.25 0.365-0.343 1.215-0.601 1.496-0.998 0.116-0.171 0.202-1.044 0-0.748-0.078-0.039-0.36-0.926-0.5-0.996-1.185-0.616-2.983 0.241-3.989 0-0.709-0.18-1.076-1.77-1.746-1.996h-0.498z" fill="#f56600"/>
  </g>
</svg>
